<?xml version="1.0" encoding="utf-8"?>
<!-- Generator: Adobe Illustrator 26.0.0, SVG Export Plug-In . SVG Version: 6.00 Build 0)  -->
<svg version="1.1" id="Layer_1" xmlns="http://www.w3.org/2000/svg" xmlns:xlink="http://www.w3.org/1999/xlink" x="0px" y="0px"
	 width="384px" height="384px" viewBox="0 0 384 384" enable-background="new 0 0 384 384" xml:space="preserve">
<g>
	<path d="M180,0c8,0,16,0,24,0c2.5,0.3,4.9,0.6,7.4,0.9c38,4.1,72,17.9,101.5,42.2c36.8,30.2,59.7,68.9,68.2,115.9
		c1.3,7,2,14.1,2.9,21.1c0,8,0,16,0,24c-0.6,4.7-1.1,9.4-1.8,14.1c-5.5,38.4-20.9,72.2-46.7,101.1c-29.6,33.2-66.3,53.9-110.2,61.8
		c-7.1,1.3-14.3,2-21.4,3c-8,0-16,0-24,0c-4.7-0.6-9.4-1.1-14-1.7c-38.1-5.5-71.7-20.7-100.5-46.2C31.9,306.4,11,269.5,3,225.4
		c-1.3-7.1-2-14.3-3-21.4c0-8,0-16,0-24c0.6-4.7,1.1-9.4,1.7-14.1c6-41.9,23.7-78.1,53.3-108.2c28.7-29.3,63.4-47.6,103.9-54.7
		C165.9,1.7,173,1,180,0z M360,192c0-92.5-75.2-167.8-167.8-168C99.6,23.8,24.1,99.3,24,192c-0.1,92.4,75.2,167.8,167.8,168
		C284.4,360.2,360,284.7,360,192z"/>
	<path d="M178.8,149.3c-0.8,1.1-1.4,2.4-2.4,3.3c-11.7,11.8-23.5,23.5-35.2,35.3c-5.4,5.4-12.8,5.6-17.7,0.6
		c-4.9-5-4.6-12.2,0.8-17.7c19.5-19.5,39-39.1,58.6-58.6c5.7-5.7,12.5-5.7,18.2,0c19.6,19.6,39.3,39.2,58.8,58.8
		c5.2,5.3,5.4,12.5,0.6,17.4c-4.9,5-12.3,4.8-17.7-0.6c-11.8-11.7-23.5-23.5-35.2-35.3c-1-1-1.8-2.1-2.6-3.1c-0.3,0.1-0.7,0.2-1,0.4
		c0,1.3,0,2.6,0,3.8c0,36,0,72,0,107.9c0,1.9,0,3.8-0.5,5.6c-1.5,5.7-7,9.4-12.7,8.8c-5.7-0.6-10.3-5.4-10.7-11.3
		c-0.1-1.2,0-2.5,0-3.7c0-35.6,0-71.2,0-106.8c0-1.4,0-2.7,0-4.1C179.6,149.8,179.2,149.5,178.8,149.3z"/>
</g>
</svg>
