<?xml version="1.0" encoding="utf-8"?>
<!-- Generator: Adobe Illustrator 27.0.1, SVG Export Plug-In . SVG Version: 6.00 Build 0)  -->
<svg version="1.1" id="Layer_1" xmlns="http://www.w3.org/2000/svg" xmlns:xlink="http://www.w3.org/1999/xlink" x="0px" y="0px"
	 width="460.1px" height="482.7px" viewBox="0 0 460.1 482.7" enable-background="new 0 0 460.1 482.7" xml:space="preserve">
<path d="M394.6,412.9c1.5-3.7,3.4-4.9,7.4-4.9c31.5-0.4,57.6-26.7,58.1-58.1c0.5-33.7-25.9-60.7-59.6-61c-4.9,0-9.8,0-14.7,0
	c-2.8-30.1,17-52.1,46.4-52.2c9,0,18,0,27.4,0c0-4.9,0-9.8,0-14.9c-10.4,0-20.6-0.1-30.9,0c-28.5,0.4-53.3,22.1-57.4,50.3
	c-0.8,5.5-0.9,11-1.3,16.4c-39.8,0-79.3,0-118.8,0c-1-19.9,6.1-28.1,25.1-29.5c15.1-1.2,28.4-11.4,32.4-26
	c1.6-5.7,1.7-11.9,1.9-17.9c0.4-17.3,12.6-29.9,29.9-30.5c21.3-0.7,36.6-16,37.3-37.4c0.7-21.4,16.6-36.9,38.1-37.1
	c9.9-0.1,19.9,0,29.8,0c4.6,0,9.2,0,13.8,0c0-5.3,0-10,0-14.9c-15.4,0-30.5-0.2-45.5,0c-27.7,0.5-50.1,22.7-51,50.4
	c-0.5,15.1-8.9,23.5-23.8,24.1c-12.2,0.5-22.6,5.2-31,14c-9.7,10.2-12.7,22.6-12.4,36.4c0.3,14.5-8.7,23.6-23.2,24.1
	c-20.5,0.8-36.1,16.8-36.4,37.3c0,2.4,0,4.8,0,7.2c-1.5,0.1-2.3,0.1-3,0.1c-10.3,0.1-11.9,1.7-11.9,11.9c0,28,0,55.9,0,83.9
	c0,19.8,7.1,36.6,21.5,50.3c0.8,0.8,2,1.2,3.1,1.7c-0.4,0.5-0.7,0.9-1.1,1.4c-16.9,0-33.8,0-50.7,0c-8,0-10.9,3.3-9.9,11.3
	c1.9,16.6,14,30.2,30.5,32.5c10.1,1.4,20.4,0.9,30.7,0.9c51.3,0.1,102.5,0.1,153.8,0c20.1,0,35.6-13.6,38.2-33.1
	c1.1-8.3-1.7-11.6-10-11.6c-15.7,0-31.4,0-47.1,0c-1.2,0-2.5-0.2-4.5-0.3C384.4,430.3,390.7,422.4,394.6,412.9z M400.7,378.7
	c19.4-3.6,29.8-14.5,29.6-30.7c-0.2-15.8-11-26.8-29.6-29.8c0-4.7,0-9.4,0-14.2c22.4-1.9,44,19.3,44.5,43.4
	c0.4,25-20.7,46.7-44.5,45.4C400.7,387.9,400.7,383.3,400.7,378.7z M400.8,363.2c0-9.7,0-19.4,0-29.4c8.9-0.3,14.7,8.2,14.6,14.6
	C415.3,356.4,409.5,362.4,400.8,363.2z M420.8,453.1c-0.8,7.1-10.2,14.1-18.5,14.6c-1.2,0.1-2.5,0.1-3.7,0.1
	c-58.4,0-116.8,0-175.1,0c-9.5,0-16.8-3.6-21.6-11.9c-0.4-0.7-0.6-1.6-1-2.8C274.4,453.1,347.6,453.1,420.8,453.1z M331,437.9
	c-13.7,0-27.3,0.1-41,0c-30.8-0.1-53.5-22.8-53.6-53.6c-0.1-25.5,0-50.9,0-76.4c0-1.2,0-2.4,0-4.1c49.9,0,99.3,0,148.9,0
	c0.1,1.6,0.2,3.1,0.2,4.6c0,25,0,50,0,75C385.5,415.5,363,437.9,331,437.9z M340.8,257.5c0,5.3,0,10.5,0,16.1c-5.3,0-9.9,0-15.4,0
	c0.5-9.5,0.1-18.9,1.8-27.9c3.5-17.9,19.9-30.8,38.5-31.5c17-0.6,27.3-11.2,27.3-28.2c0-9,0-18,0-27.4c4.8,0,9.6,0,15.6,0
	c-0.8,13.5-0.1,27.3-2.7,40.5c-3.5,17.5-19.7,29.3-37.6,30C351,229.8,340.8,240.2,340.8,257.5z M212.1,404c-54.8,0-109.4,0-164.3,0
	c0-5.1,0-10,0-15.5c1.8,0,3.4,0,5,0c53.1,0,100.2,0,153.3-0.1l-0.4-16c-63,0-125.9,0-189.4,0c0-89.7,0-179.2,0-269
	c116.1,0,237,0,353.3,0c7.5-6.7,11.3-15,11.3-15.1c0-1.3,0-8.1,0-37.7c0-17.3-9.6-26.9-27-27c-5.2,0-10.5,0-15.7,0
	c-1.5,0-2.9,0-4.3,0c-6-18-13.5-24.6-26.5-23.6c-11.7,1-19.8,9.4-22,23.6c-7.5,0-15,0-22.6,0c-1.8,0-3.6-0.1-5.4,0
	c-2.6,0.2-3.6-0.7-4-3.4C251.6,8.5,241.8,0.1,230.1,0c-11.9-0.1-21.6,8.4-23.6,20.4c-0.2,1.2-1.7,3.1-2.6,3.1
	c-9.7,0.2-19.4,0.1-29,0.1C171.4,8.1,163.4,0.3,151.2,0c-12.6-0.3-20.4,7-24.7,23.4c-10.2,0-20.4,0-31.1,0
	c-0.8-7.8-3.6-15.1-10.7-19c-4.2-2.4-9.5-4-14.3-4.1c-12-0.2-19.6,7.9-23.3,23.4c-5.4,0-10.9,0.3-16.4-0.1C15.6,22.7,4.7,28,0,43.1
	c0,113.2,0,226.4,0,339.5c2.1,4.5,5.8,5.9,10.6,5.8c6.8-0.2,13.7,0,21,0c0,7.2,0,13.9,0,20.6c0,8.5,2.7,11.2,11.4,11.2
	c67,0,109.9,0,177,0.1L212.1,404z M301.6,23.3c0.2-4.8,3.6-7.4,8-7.3c4.3,0.2,7.4,3.2,7.5,7.9c0.2,7.6,0,15.2,0,23.2
	c-5.1,0-10.1,0-15.6,0C301.5,39,301.2,31.1,301.6,23.3z M222.3,22.8c0.2-4.4,3.8-6.9,8-6.7c4,0.2,7.3,3,7.5,7.4
	c0.3,7.8,0.1,15.7,0.1,23.9c-5.6,0-10.4,0-15.7,0C222.2,39,221.9,30.9,222.3,22.8z M142.9,23.3c0.1-4.2,3.2-7,7.2-7.2
	c4.3-0.3,7.9,2.1,8.1,6.6c0.4,8.2,0.1,16.3,0.1,24.7c-5.1,0-10,0-15.5,0C142.8,39.1,142.7,31.2,142.9,23.3z M64,21.6
	c0.2-3.6,4.2-5.9,8-5.5c4.1,0.4,6.8,2.8,7,6.8c0.3,8,0.1,16.1,0.1,24.5c-5.3,0-10.1,0-15.2,0C63.9,38.7,63.6,30.1,64,21.6z M16,49.4
	c0-7,2.9-9.8,9.8-9.8c7-0.1,14.1,0,21.8,0c0,5,0,9.4,0,13.9c0.1,7,2.8,9.8,9.8,9.9c9.4,0.1,18.9,0.1,28.3,0c6.7-0.1,9.4-3.1,9.5-9.8
	c0.1-4.5,0-8.9,0-14c5.5,0,10.6,0,15.8,0c5.1,0,10.1,0,15.8,0c0,4.8,0,9.2,0,13.6c0.1,7.2,2.9,10.1,10.1,10.2
	c9.3,0.1,18.6,0.1,27.8,0c7-0.1,9.6-3,9.7-10c0-4.4,0-8.9,0-13.6c1.6-0.1,2.8-0.2,4-0.2c9.1,0,18.2,0,27.9,0c0,4.8-0.1,9.3,0,13.7
	c0.1,7.3,2.7,10,10.1,10.1c9.1,0.1,18.3,0.1,27.4,0c7.3-0.1,9.9-2.8,10.1-10.1c0.1-4.3,0-8.7,0-13.3c10.6,0,20.8,0,31.8,0
	c0,4.4,0,9,0,13.6c0.1,7,2.7,9.8,9.8,9.9c9.3,0.1,18.6,0.1,27.8,0c7.1-0.1,9.8-3,9.9-10.3c0.1-4,0.1-8.1,0.1-12.1
	c0-0.3,0.2-0.5,0.4-1.2c7.9,0,15.9-0.3,23.9,0.1c4.2,0.2,7,3.1,7,7.4c0.2,13.1,0.1,26.3,0.1,39.7c-116.2,0-232.1,0-348.3,0
	C16.2,85.9,16,85,16,84C15.9,72.5,15.9,60.9,16,49.4z M380.7,88.4L380.7,88.4C380.7,88.4,380.7,89,380.7,88.4z M71.4,309.1
	c13,0,23.7-10.6,23.8-23.6c0.1-12.9-10.6-23.7-23.6-23.9c-13-0.2-24,10.8-23.9,23.9C47.7,298.5,58.4,309.1,71.4,309.1z M71.2,277.6
	c4.3-0.1,7.9,3.5,7.9,7.9c0,4.4-3.6,7.9-8.1,7.7c-4.3-0.2-7.5-3.6-7.5-7.9C63.7,281.1,67,277.7,71.2,277.6z M95.1,158.9
	c0.2-12.9-10.4-23.8-23.3-24.1c-13.1-0.3-24.1,10.5-24.2,23.6c-0.1,12.9,10.6,23.7,23.5,23.9C84,182.5,94.9,171.8,95.1,158.9z
	 M63.6,158.6c0-4.4,3.5-7.9,8-7.8c4.2,0.1,7.6,3.5,7.6,7.7c0,4.4-3.5,7.9-8,7.8C66.9,166.2,63.6,162.8,63.6,158.6z M150.9,134.8
	c-13.1-0.1-24.1,10.8-24,23.8c0.1,12.9,10.9,23.7,23.8,23.7c13,0,23.7-10.6,23.7-23.6C174.4,145.6,163.9,134.9,150.9,134.8z
	 M150.9,166.3c-4.4,0.1-8-3.4-8-7.8c0-4.2,3.4-7.6,7.6-7.7c4.3-0.1,7.7,3.1,8,7.3C158.6,162.6,155.3,166.2,150.9,166.3z
	 M126.9,285.5c0.1,13,10.7,23.6,23.7,23.6c13.1,0,23.6-10.5,23.7-23.5c0.1-13-10.3-23.7-23.4-23.9
	C138,261.4,126.8,272.5,126.9,285.5z M158.4,285.3c0.1,4.4-3.5,8-7.9,7.9c-4.2-0.1-7.6-3.5-7.7-7.7c-0.1-4.3,3.6-8,7.9-7.9
	C155,277.7,158.4,281.1,158.4,285.3z M150.6,198.3c-13.1,0-23.7,10.6-23.7,23.6c0,12.9,10.7,23.7,23.7,23.8
	c13.1,0.1,23.9-10.7,23.8-24C174.3,208.7,163.7,198.3,150.6,198.3z M150.7,229.9c-4.3,0.1-8-3.7-7.9-8c0.1-4.2,3.6-7.7,7.7-7.7
	c4.2,0,7.7,3.4,7.8,7.6C158.6,226.1,155.1,229.8,150.7,229.9z M229.9,245.7c13.1,0.1,23.9-10.7,23.8-24
	c-0.1-13.1-10.6-23.5-23.8-23.4c-13.1,0-23.7,10.6-23.7,23.6C206.3,234.8,217,245.6,229.9,245.7z M230,214.1c4.2,0,7.7,3.4,7.8,7.6
	c0.2,4.4-3.3,8.1-7.7,8.2c-4.3,0.1-8-3.7-7.9-8C222.3,217.7,225.9,214.1,230,214.1z M71.1,245.7c13,0.2,24.1-10.8,24-23.8
	c-0.1-13-10.7-23.5-23.8-23.6c-13.1,0-23.7,10.5-23.8,23.5C47.6,234.8,58.1,245.5,71.1,245.7z M71.5,214.1c4.2,0.1,7.6,3.5,7.6,7.8
	c0,4.4-3.6,8.1-7.9,8c-4.1-0.1-7.6-3.6-7.6-7.8C63.6,217.7,67.2,214,71.5,214.1z M229.9,182.3c13,0,23.6-10.6,23.7-23.6
	c0.1-13.2-10.7-24-23.9-23.9c-13,0.1-23.5,10.8-23.5,23.8C206.4,171.7,216.9,182.3,229.9,182.3z M230,150.8c4.2,0,7.7,3.4,7.8,7.6
	c0.1,4.3-3.6,7.9-8,7.9c-4.2,0-7.7-3.4-7.8-7.6C222,154.4,225.6,150.8,230,150.8z"/>
</svg>
