<?xml version="1.0" encoding="utf-8"?>
<!-- Generator: Adobe Illustrator 27.0.1, SVG Export Plug-In . SVG Version: 6.00 Build 0)  -->
<svg version="1.1" id="Layer_1" xmlns="http://www.w3.org/2000/svg" xmlns:xlink="http://www.w3.org/1999/xlink" x="0px" y="0px"
	 width="384px" height="384px" viewBox="0 0 384 384" enable-background="new 0 0 384 384" xml:space="preserve">
<path d="M41.3,384c-1.5-0.6-3-1.1-4.5-1.7c-9.4-3.7-15.2-12.3-15.2-23.2c-0.1-16.9,0-33.7,0-50.6c0-16.2,0-32.5,0-48.7
	c0-1.4-0.1-2.8,0.2-4.1c0.5-2.6,2.2-4.2,4.8-4.4c2.8-0.2,4.9,1,5.7,3.7c0.4,1.5,0.5,3.2,0.5,4.8c0,28.5,0,57,0,85.5
	c0,1.5,0,2.9,0,5.1c40.7-22.4,80.8-44.4,120.3-66.1c-39.8-40.1-79.5-80-119.8-120.5c-0.2,2.5-0.5,4.5-0.5,6.5c0,19.6,0,39.2,0,58.9
	c0,6-1.9,8.8-5.8,8.6c-3.8-0.1-5.4-2.6-5.4-8.6c0-19.6,0.1-39.3-0.1-58.9c-0.1-8.5,2.7-15.5,9-21.4c6.2-5.8,12.3-11.8,18.1-17.9
	c1.3-1.3,2.2-3.6,2.2-5.5c0.2-15,0.1-30,0.1-45C51,64.7,61,54.7,77,54.6c15.2,0,30.5-0.1,45.7,0c2.7,0,4.6-0.7,6.6-2.6
	c14.4-14.3,28.9-28.3,43.3-42.6c4.3-4.3,9.2-7.5,15-9.4c3,0,6,0,9,0c7.6,2.1,13,7.4,18.4,12.8c13.3,13.2,26.7,26.4,40.2,39.4
	c1.4,1.4,3.8,2.3,5.8,2.3c15.4,0.2,30.7,0.1,46.1,0.1c16,0,26,10,26,25.9c0,3.7,0.1,7.5,0,11.2c-0.1,3.7-2.1,5.9-5.3,6
	c-3.3,0.1-5.7-2.2-5.8-5.9c-0.1-4,0-8-0.1-12c-0.1-8.8-5.2-14-14-14c-32.5,0-65,0-97.5,0c-44.1,0-88.2,0-132.4,0
	c-11.1,0-15.8,4.6-15.8,15.6c0,30.4,0,60.7-0.1,91.1c0,2.4,0.7,4.2,2.4,5.9c32.5,32.4,65,64.8,97.4,97.2c1.9,1.9,3.2,2,5.4,0.7
	c4.4-2.6,8.9-5.1,13.5-7.4c7.2-3.7,14.6-3.9,21.9-0.2c4.9,2.5,9.7,5.1,14.5,7.9c1.9,1.1,3,0.9,4.5-0.6
	c32.8-32.8,65.6-65.5,98.4-98.4c1.1-1.1,1.7-3.3,1.7-5c0.1-18.1,0.1-36.2,0.1-54.4c0-1.5,0.1-3,0.6-4.4c1-2.5,3.1-3.6,5.7-3.3
	c2.8,0.4,4.6,2.1,4.8,4.9c0.2,3.4-0.2,6.8,0.2,10.1c0.2,1.8,0.9,3.9,2.2,5.1c6.2,6.4,12.5,12.6,18.9,18.7c5.5,5.3,8.3,11.7,8.3,19.4
	c0,63.2,0,126.5,0,189.7c0,12.6-6.5,21-18.5,24.6c-0.4,0.1-0.8,0.5-1.3,0.7c-22.2,0-44.5,0-66.8,0c-2.7-1.7-4.7-4-3.5-7.4
	c1.2-3.4,4.1-4.1,7.3-3.8c1,0.1,2,0,3,0c18.2,0,36.5,0,54.7,0c7.1,0,11.9-3.8,12.9-9.9c-0.5-0.3-1-0.7-1.5-1
	c-49.9-27.4-99.8-54.8-149.6-82.2c-5.1-2.8-9.8-2.6-14.9,0.2c-42.8,23.6-85.7,47.2-128.6,70.7c-7.5,4.1-15,8.3-22.5,12.4
	c2.1,6.9,6.4,9.8,14.3,9.8c67.9,0,135.7,0,203.6,0c3.2,0,6.1,0.4,7.3,3.9c1.2,3.5-0.8,5.7-3.5,7.4C183.8,384,112.5,384,41.3,384z
	 M351.3,350.3c0-2.1,0-3.2,0-4.3c0-58.5,0-117,0-175.4c0-1.6-0.1-3.3-0.3-4.9c-0.1-0.6-0.6-1.1-0.8-1.3
	c-39.9,40.1-79.5,80-119.2,119.8C270.6,306,310.6,327.9,351.3,350.3z M240.6,54.5c-0.4-0.8-0.5-1.2-0.8-1.4
	c-12.9-12.7-25.8-25.5-38.8-38c-5.6-5.4-12.8-5.2-18.4,0.3c-12.6,12.3-25.1,24.6-37.7,37c-0.5,0.5-0.9,1.2-1.5,2.1
	C176,54.5,208.1,54.5,240.6,54.5z M50.7,145.8c-3.1,3.1-6.3,6.1-8.6,8.4c2.7,3.2,5.5,6.4,8.6,10C50.7,157.7,50.7,151.7,50.7,145.8z
	 M333.3,164.3c3.5-3.5,6.5-6.6,9.1-9.2c-3-3.1-6.1-6.2-9.1-9.3C333.3,151.7,333.3,157.7,333.3,164.3z M206,179
	c-18.1,15.5-39,2.2-42.4-18.6c-1.7-10.8,0.3-20.7,8-28.9c8.4-8.8,19.9-10.5,30.8-4.7c0.4,0.2,0.9,0.4,1.3,0.6c1.3-6,3.1-8,6.9-7.6
	c3.6,0.4,4.8,2.7,4.8,8.7c0,13.2-0.1,26.5-0.1,39.7c0,3.3,0.3,6.5,3.5,8.1c3.4,1.6,6.8,0.5,9.4-1.8c2.1-2,4.1-4.5,5.2-7.1
	c12-27.9-8.2-50.8-28.4-56.6c-25.5-7.2-52.1,8.9-57.1,34.6c-5.1,26.1,12.7,50.8,39.1,54.1c1.2,0.2,2.5,0.3,3.7,0.4
	c3.9,0.4,6,2.7,5.9,5.9c-0.2,3.4-2.9,5.5-6.9,5.3c-10.4-0.7-20.1-3.7-28.8-9.6c-20.5-13.7-29.7-38.9-22.9-62.5
	c6.9-23.9,27.9-40.4,52.6-41.2c24.5-0.8,46.8,14.2,55.1,37.3c5,14,3,27.6-3.8,40.5c-3.9,7.4-10.4,11.6-18.9,12.4
	C215.3,189,210,185.4,206,179z M204.5,153.7c-0.7-3.1-1.1-6.4-2.1-9.4c-1.7-4.8-4.8-8.5-10.2-9.3c-5.8-0.9-10.2,1.5-13.7,5.9
	c-6.3,8.2-5.3,22.5,2.1,29.7c5.9,5.7,13.4,5.4,18.6-1C202.7,164.9,204.1,159.6,204.5,153.7z"/>
</svg>
