<?xml version="1.0" encoding="utf-8"?>
<!-- Generator: Adobe Illustrator 27.0.1, SVG Export Plug-In . SVG Version: 6.00 Build 0)  -->
<svg version="1.1" id="Layer_1" xmlns="http://www.w3.org/2000/svg" xmlns:xlink="http://www.w3.org/1999/xlink" x="0px" y="0px"
	 width="384px" height="384px" viewBox="0 0 384 384" enable-background="new 0 0 384 384" xml:space="preserve">
<path d="M384,129c0,58.8,0,117.5,0,176.3c-0.1,0.2-0.4,0.4-0.4,0.6c-5.1,20.3-17.4,30-38.4,30c-51.6,0-103.2,0-154.8,0
	c-51,0-102,0-153,0c-10.2,0-19.1-3-26.6-10.1C4.8,320.2,1.8,313,0,305.2C0,246.5,0,187.7,0,129c0.6,0.2,1.2,0.4,1.7,0.7
	c51.9,34.6,103.7,69.2,155.6,103.7c23.2,15.5,46.3,15.5,69.6,0c46.4-30.9,92.7-61.8,139-92.7C371.9,136.8,377.9,132.9,384,129z
	 M0.6,89.8c1.9,9.7,7.2,17.1,15.4,22.5c51.7,34.4,103.3,68.9,154.9,103.3c13.8,9.2,27.8,9.4,41.7,0.2
	c51.8-34.4,103.5-69,155.3-103.4c8.7-5.8,13.6-13.9,16-23.9c0-3.3,0-6.5,0-9.8c-0.6-2.1-1.2-4.3-1.9-6.4
	c-4.7-14.1-17.2-23.3-32.5-24.2c-1.1-0.1-2.2-0.1-3.4-0.1c-102.9,0-205.7,0-308.6,0c-17.4,0-30.8,9-35.9,24.2
	c-0.7,2.1-1.2,4.3-1.9,6.4c0,3.3,0,6.5,0,9.8C0.2,88.9,0.5,89.3,0.6,89.8z"/>
</svg>
