<?xml version="1.0" encoding="utf-8"?>
<!-- Generator: Adobe Illustrator 27.0.1, SVG Export Plug-In . SVG Version: 6.00 Build 0)  -->
<svg version="1.1" id="Layer_1" xmlns="http://www.w3.org/2000/svg" xmlns:xlink="http://www.w3.org/1999/xlink" x="0px" y="0px"
	 width="408.8px" height="408.9px" viewBox="0 0 408.8 408.9" enable-background="new 0 0 408.8 408.9" xml:space="preserve">
<path d="M366.5,408.9c-108.1,0-216.1,0-324.2,0c-0.6-0.2-1.2-0.6-1.8-0.7c-24-4.2-40.4-23.5-40.4-48.1C0,256.4,0,152.6,0.1,48.8
	c0-5.5,0.9-11.2,2.6-16.4C9.4,12.3,27.5,0,49.6,0C152.8,0,256,0,359.3,0c1.1,0,2.1,0,3.2,0c15.1,0.8,27.3,7.1,36.6,19
	c5.4,6.9,7.9,14.9,9.7,23.3c0,108.1,0,216.2,0,324.2c-0.3,0.9-0.6,1.7-0.8,2.6c-3.9,18.9-15,31.4-33.2,37.5
	C372.2,407.7,369.3,408.2,366.5,408.9z M220.1,377c0-43.6,0-86.8,0-130.3c-15.9,0-31.6,0-47.4,0c0-16.6,0-32.9,0-49.6
	c16,0,31.7,0,47.8,0c0-12.8-0.4-25.2,0.1-37.5c1.3-32.3,23.8-59.9,55.2-67.8c16.5-4.2,33.4-1.9,50.1-2.2c0.2,0,0.4,0.3,0.5,0.4
	c0,16.3,0,32.5,0,49c-1.5,0-2.8,0-4.1,0c-8.8,0-17.6,0-26.3,0c-16.2,0.1-25.9,9.7-26,25.8c0,6.4,0,12.8,0,19.2c0,4.3,0,8.7,0,13.4
	c19.4,0,38.3,0,57.5,0c-2.8,16.7-5.4,32.9-8.2,49.5c-16.5,0-32.8,0-49,0c0,43.6,0,86.8,0,130.1c29.5,0,58.6,0,87.7,0
	c12.9,0,18.9-6.1,18.9-19.1c0-102.2,0-204.4,0-306.7c0-13.3-6-19.2-19.2-19.2c-102.2,0-204.4,0-306.6,0C38,31.9,32,37.9,32,50.9
	c0,102.4,0,204.7,0,307.1c0,13,6,19,19,19c54.8,0,109.6,0,164.5,0C216.9,377,218.4,377,220.1,377z"/>
</svg>
