<?xml version="1.0" encoding="utf-8"?>
<!-- Generator: Adobe Illustrator 27.0.1, SVG Export Plug-In . SVG Version: 6.00 Build 0)  -->
<svg version="1.1" id="Layer_1" xmlns="http://www.w3.org/2000/svg" xmlns:xlink="http://www.w3.org/1999/xlink" x="0px" y="0px"
	 width="134.1px" height="134.1px" viewBox="0 0 134.1 134.1" enable-background="new 0 0 134.1 134.1" xml:space="preserve">
<path d="M133.9,63.2c0,2.6,0,5.2,0,7.8c-0.1,0.4-0.2,0.8-0.2,1.3c-0.5,3.3-0.7,6.7-1.5,9.9c-6.2,24.3-21.3,40.5-44.9,48.6
	c-3.8,1.3-7.9,1.9-12,2.9c0-17.8,0-35.1,0-52.7c5.4,0,10.7,0,16,0c0.8-6.3,1.6-12.4,2.4-18.7c-6.2,0-12.3,0-18.5,0
	c0-4.6-0.1-9.1,0-13.6c0-1.3,0.4-2.6,1-3.7c1.2-2.5,3.6-3.3,6.2-3.5c3.5-0.2,7-0.1,10.4-0.2c0.5,0,0.9,0,1.5-0.1
	c0-5.4,0-10.6,0-15.8c0-0.3-0.6-0.9-0.9-0.9c-5.3-0.2-10.5-0.6-15.8-0.5c-5.1,0.1-9.8,1.8-13.8,5.1c-5.2,4.4-7.4,10.2-7.7,16.7
	c-0.3,5-0.1,9.9-0.2,14.9c0,0.5,0,1,0,1.7c-5.4,0-10.7,0-16,0c0,6.3,0,12.4,0,18.7c5.4,0,10.6,0,15.9,0c0,17.4,0,34.6,0,51.8
	c-0.3,0-0.6,0-0.8-0.1c-10.7-2-20.3-6.3-28.9-13c-10.2-7.9-17.6-18-22-30.2c-5.7-16-5.3-31.9,0.9-47.7c9.6-24.2,33.6-41,59.5-41.7
	c12-0.4,23.5,2.1,34,7.9c18.8,10.4,30.3,26.2,34.3,47.4C133.4,58.2,133.6,60.7,133.9,63.2z"/>
</svg>
