<?xml version="1.0" encoding="utf-8"?>
<!-- Generator: Adobe Illustrator 26.0.0, SVG Export Plug-In . SVG Version: 6.00 Build 0)  -->
<svg version="1.1" id="Layer_1" xmlns="http://www.w3.org/2000/svg" xmlns:xlink="http://www.w3.org/1999/xlink" x="0px" y="0px"
	 width="384px" height="384px" viewBox="0 0 384 384" enable-background="new 0 0 384 384" xml:space="preserve">
<g>
	<path d="M180.1,0c8,0,16,0,24,0c1,0.2,1.9,0.5,2.9,0.6c12,2.1,24.4,2.8,36,6.4c75.7,23.3,121.8,74.1,137.8,151.9
		c1.4,6.9,2,14.1,3,21.1c0,8,0,16,0,24c-0.2,1-0.5,1.9-0.6,2.9c-3.4,42.1-18.8,79.2-46.4,111c-29.7,34.2-67,55.3-111.6,63.2
		c-7,1.2-14,2-21,2.9c-8,0-16,0-24,0c-3.4-0.5-6.9-0.9-10.3-1.4c-44.2-5.3-82.5-23.3-113.4-55.3C7.5,276.8-9.5,216.3,5.8,147.7
		C22.4,73.1,84.1,15.6,159.4,2.9C166.2,1.7,173.2,0.9,180.1,0z M192.2,30C103,29.9,30.6,102.2,30.4,191.7
		c-0.3,89.4,72.1,162.2,161.5,162.3c89.2,0.1,161.5-72.2,161.8-161.7C354,102.9,281.6,30.1,192.2,30z"/>
	<path d="M207,224.1c0,15.6,0,31.2,0,46.8c0,9.7-6.2,16.4-15.1,16.4c-8.7-0.1-14.8-6.7-14.8-16.3c0-31.4,0-62.7,0-94.1
		c0-9.4,6.3-16.2,14.9-16.2c8.6,0,15,6.8,15,16.2C207,192.6,207,208.4,207,224.1z"/>
	<path d="M171.8,121.8c0.1-11.2,9.3-20,20.5-19.9c11.1,0.1,20,9.3,19.9,20.5c-0.1,11.1-9.5,20.2-20.5,20
		C180.6,142.2,171.7,132.9,171.8,121.8z"/>
</g>
</svg>
