<?xml version="1.0" encoding="utf-8"?>
<!-- Generator: Adobe Illustrator 27.0.1, SVG Export Plug-In . SVG Version: 6.00 Build 0)  -->
<svg version="1.1" id="Layer_1" xmlns="http://www.w3.org/2000/svg" xmlns:xlink="http://www.w3.org/1999/xlink" x="0px" y="0px"
	 width="512px" height="512px" viewBox="0 0 512 512" enable-background="new 0 0 512 512" xml:space="preserve">
<path d="M460,512c-136,0-272,0-408,0c-1.1-0.3-2.1-0.8-3.2-1c-17.6-3.8-31.6-13.1-40.4-28.9C4.6,475.3,2.7,467.4,0,460
	C0,324,0,188,0,52c0.3-0.9,0.8-1.8,1-2.7c3.2-16,11-29.5,24.8-38.1C33.7,6.2,43.2,3.6,52,0c136,0,272,0,408,0c1.1,0.3,2.1,0.8,3.2,1
	c17.7,3.7,31.6,13.1,40.4,28.9c3.8,6.8,5.7,14.7,8.4,22.1c0,136,0,272,0,408c-0.4,1.1-0.8,2.1-1,3.2c-5,22.3-18.2,37.6-39.6,45.5
	C467.7,510.1,463.8,510.9,460,512z M256.5,40c-64.5,0-129,0-193.5,0C47.8,40,40,47.8,40,63c0,128.6,0,257.3,0,385.9
	c0,15.3,7.8,23.1,23,23.1c128.6,0,257.3,0,385.9,0c15.3,0,23.1-7.8,23.1-23c0-128.6,0-257.3,0-385.9c0-15.3-7.8-23.1-23-23.1
	C384.8,40,320.7,40,256.5,40z M421.6,284.7c-0.2-12.4-2.1-24.9-4.8-37.1c-4.6-20.8-15.2-37.9-35.6-46.6
	c-23.8-10.2-48.5-11.2-73.2-2.9c-14.9,5-26.8,14.4-36,27.7c0-9.5,0-19,0-28.5c-23,0-45.3,0-67.7,0c0,75.3,0,150.2,0,225.3
	c22.6,0,45,0,67.8,0c0-2.1,0-3.9,0-5.7c0-35.2-0.1-70.3,0.1-105.5c0-8,0.7-16,2.1-23.8c3.7-20.3,14.8-31.2,33.8-34.3
	c23.4-3.7,39.1,7.3,43,30.7c1.2,7,1.9,14.2,1.9,21.4c0.2,37.2,0.1,74.3,0.1,111.5c0,1.9,0,3.9,0,5.8c23.3,0,45.9,0,68.8,0
	C421.8,376.4,422.1,330.5,421.6,284.7z M159.6,197.4c-23.4,0-46.4,0-69.4,0c0,75.3,0,150.2,0,225.4c23.2,0,46.1,0,69.4,0
	C159.6,347.3,159.6,272.3,159.6,197.4z M125.8,166c22.6,0.1,41.1-18.3,41.2-40.8c0.1-22.6-18.3-41.1-40.8-41.2
	c-22.6-0.1-41.1,18.3-41.2,40.8C84.9,147.4,103.3,165.9,125.8,166z"/>
</svg>
