<?xml version="1.0" encoding="utf-8"?>
<!-- Generator: Adobe Illustrator 27.0.1, SVG Export Plug-In . SVG Version: 6.00 Build 0)  -->
<svg version="1.1" id="Layer_1" xmlns="http://www.w3.org/2000/svg" xmlns:xlink="http://www.w3.org/1999/xlink" x="0px" y="0px"
	 width="512px" height="512px" viewBox="0 0 512 512" enable-background="new 0 0 512 512" xml:space="preserve">
<path d="M267,0c9.1,1.8,18.4,2.9,27.3,5.7c52.1,16.2,82.3,52.3,93.7,104.9c7.8,36.1,2.1,70.7-11.6,104.6
	c-14.9,36.9-34.8,71.1-57.8,103.5c-15.7,22.1-32.6,43.4-49.4,64.7c-8.1,10.3-18,10-26.3,0c-38.1-45.6-72.5-93.8-98.2-147.7
	c-11-23.1-20.7-46.8-22.9-72.5c-4.7-54.7,8.8-102.9,54.5-137.8c18.6-14.2,40.2-21.9,63.5-24.5c1.1-0.1,2.2-0.6,3.3-0.9
	C251,0,259,0,267,0z M256,180.3c25,0,45.1-20.1,45.1-45c0-24.9-20.3-45.1-45.1-45.1c-24.8,0-45.1,20.3-45.1,45.1
	C210.9,160.3,231,180.3,256,180.3z M0,501c2.4,4.9,6,8.6,11,11c75.3,0,150.7,0,226,0c2.4-1.6,4.8-3.2,7.3-4.9
	c-0.5-0.7-0.9-1.3-1.3-1.7c-33-32.9-66-65.8-98.9-98.9c-2.6-2.6-4.4-1.1-6.5,0C96,427.7,54.4,448.9,12.9,470.3c-2,1-3.8,3.1-4.8,5.2
	C5.1,481.2,2.7,487.1,0,493C0,495.7,0,498.3,0,501z M501,512c5-2.4,8.6-6.1,11-11c0-2.7,0-5.3,0-8c-0.6-1-1.2-1.9-1.7-2.9
	c-9.5-22-18.9-44-28.3-65.9c-0.6-1.5-1.4-3-2.2-4.7c-1.8,0.9-3.2,1.6-4.7,2.3c-46.6,24.1-93.3,48.3-139.9,72.5
	c-11.2,5.8-22.2,11.8-33.3,17.8C368.3,512,434.7,512,501,512z M172.9,392.8c32.4,32.4,64.9,64.7,97.2,97.2c2.8,2.8,4.6,1.8,7.3,0.4
	c53-27.5,106-55,159.1-82.5c10.4-5.4,20.9-10.9,31.5-16.4c-16.1-37.4-32-74.4-48-111.3c-2.3-5.3-6.8-8.2-12.6-8.4
	c-6.5-0.2-13,0-19.5-0.3c-3.3-0.2-5,1.1-6.6,3.9c-25.4,46.3-55.9,89.1-90.1,129.3c-4,4.7-9.1,8.9-14.6,11.9
	c-18.9,10.3-41.4,5.4-55.9-11.6c-8.1-9.5-15.8-19.2-23.8-28.9c-9,4.6-17.6,9-26.7,13.7C171.5,391.1,172.2,392,172.9,392.8z
	 M175.5,346.7c-12.6-19.4-25.2-38.8-37.6-58.3c-3.5-5.4-5.4-13.3-10.3-16c-5.1-2.8-13-0.7-19.6-0.9c-8.8-0.3-14.2,3.7-17.6,11.8
	c-19.9,46.7-40,93.2-60,139.8c-0.6,1.4-1.1,2.9-2,5.4c50.8-25.9,100.4-51.3,150.5-76.9C177.6,349.7,176.5,348.2,175.5,346.7z
	 M271,135.3c0-8.1-6.9-14.9-14.9-15c-8.3,0-15.2,7-15.1,15.4c0.1,8.2,6.9,14.7,15.2,14.6C264.5,150.1,271,143.5,271,135.3z"/>
</svg>
