<?xml version="1.0" encoding="utf-8"?>
<!-- Generator: Adobe Illustrator 27.0.1, SVG Export Plug-In . SVG Version: 6.00 Build 0)  -->
<svg version="1.1" id="Layer_1" xmlns="http://www.w3.org/2000/svg" xmlns:xlink="http://www.w3.org/1999/xlink" x="0px" y="0px"
	 width="409.6px" height="409.6px" viewBox="0 0 409.6 409.6" enable-background="new 0 0 409.6 409.6" xml:space="preserve">
<path d="M5.2,409.2c-5-2.8-5.7-4.8-3.6-10.1c2.7-6.6,5.4-13.3,8.2-19.9c1.9-4.4,4.9-6.1,8.3-4.7c3.4,1.4,4.5,4.8,2.8,9.1
	c-1.7,4.3-3.5,8.6-5.6,13.5c3.7,0,6.9,0,10.2,0c9.2,0,18.4,0.1,27.5-0.1c1.3,0,3.2-0.9,3.6-1.9c6.7-15.8,13.2-31.6,19.7-47.5
	c0.1-0.3,0.1-0.8,0.2-1.6c-8.7,0-17.3,0-25.9,0c-4.7,0-10.3-1.5-13.7,0.6c-3.2,2-3.9,7.8-5.7,11.9c-1.9,4.3-5,6-8.3,4.5
	c-3.5-1.5-4.5-4.7-2.7-9.1c13-31.6,26.1-63.1,39-94.7c1.6-3.8,4.3-5,8.1-5c17,0.1,34.1,0,51.1,0c1.5,0,2.9,0,5.4,0
	c-1.4-2-2.3-3.5-3.3-4.9c-15.1-21.2-27.7-43.8-36-68.6c-9.6-28.8-12-58-3.4-87.5c7.6-25.9,22-47.4,42.9-64.4
	c19.1-15.6,41-25,65.5-27.8C221.7-2.4,251.4,5,278,23.5c23.2,16.2,39.4,37.8,48.6,64.5c8.6,25,9,50.3,3.1,75.9
	c-6.7,29.5-20.4,55.8-37.2,80.6c-1.9,2.9-3.9,5.7-5.9,8.5c-0.1,0.2-0.1,0.5-0.3,1.2c1.4,0.1,2.8,0.2,4.2,0.2c17,0,34.1,0,51.1,0
	c5.8,0,7,0.8,9.2,6.3c18.9,45.7,37.7,91.3,56.6,137c0.5,1.2,1.1,2.4,1.7,3.5c0,2.7,0,5.3,0,8C274.5,409.2,139.8,409.2,5.2,409.2z
	 M204.6,322.8c19.2-16.3,36.7-33.4,52.6-52.1c25.8-30.2,47.5-62.7,58.6-101.4c6.1-21,7.8-42.3,3.2-63.8
	c-5.5-25.4-17.9-46.8-37.5-63.9C255.5,18.9,225,9.4,190.8,13.4c-29.4,3.4-54.1,16.7-73.6,39.1c-22.5,25.8-31.8,56.1-28.7,90.1
	c2.2,24,10.5,46.3,21.7,67.5c19.1,36,45.2,66.6,74.5,94.6C191,310.7,197.8,316.5,204.6,322.8z M68.9,397.2c6.3,0,12.1-0.2,17.9,0.1
	c3.2,0.1,4.9-0.8,6.1-3.9c8.7-21.6,17.6-43,26.5-64.5c4.5-10.9,9-21.9,13.6-32.8c2.4-5.6,6.3-6.5,11-2.8c0.6,0.5,1.2,1,1.8,1.6
	c39.4,33.5,78.8,67.1,118.3,100.6c0.9,0.7,2,1.7,3,1.7c11,0.1,22,0.1,33,0.1c0.2-0.3,0.4-0.6,0.5-0.9c-1-0.8-2.1-1.5-3-2.3
	c-9.3-8.1-18.6-16.3-28-24.4c-9.2-8.1-18.4-16.1-27.6-24.2c-2.1-1.9-3.4-4.1-2.3-7c1.1-3.1,3.5-4.2,6.6-4.1c1.1,0,2.1,0,3.2,0
	c38.1,0,76.1,0,114.2,0c1.4,0,2.8,0,4.6,0c-2.5-6.1-4.8-11.4-6.9-16.9c-0.8-2.2-2.1-3-4.4-2.9c-10.6,0.1-21.3,0.1-31.9,0
	c-4.6,0-7.1-2.1-7.2-5.7c-0.1-3.7,2.5-6.2,7.2-6.3c8.2-0.1,16.5,0,24.7,0c1.6,0,3.3,0,5.4,0c-4.7-11.4-9.2-22-13.5-32.7
	c-1-2.6-2.4-3.2-5-3.2c-18.9,0.1-37.8,0-56.7,0.2c-1.9,0-4.3,1.2-5.6,2.6c-9,9.8-17.8,19.8-26.6,29.7c-0.8,0.9-1.6,1.9-2.9,3.4
	c2.3,0,3.7,0,5.1,0c15.6,0,31.1,0,46.7,0c1.7,0,3.5,0.1,5.1,0.6c2.7,0.9,3.9,3,3.7,5.9c-0.2,2.9-1.8,4.7-4.6,5.3
	c-1.5,0.3-3.2,0.2-4.8,0.2c-20.2,0-40.5,0-60.7,0.1c-1.9,0-4.1,0.9-5.6,2.1c-6.5,5.4-12.8,11.2-19.3,16.8c-4.9,4.2-6.7,4.1-11.8-0.1
	c-22.5-18.7-43.1-39.2-61.5-61.9c-3.1-3.9-6.3-5.5-11.1-5c-2.4,0.2-3.7,0.8-4.7,3.2c-5.2,12.9-10.6,25.8-15.9,38.7
	c-2.3,5.5-3.2,6.1-9.3,6.2c-14.5,0-29,0-43.5,0.1c-1.3,0-3.4,0.6-3.9,1.6c-2.7,5.7-5,11.7-7.6,18.1c1.9,0,3.1,0,4.4,0
	c12.5,0,25,0,37.5,0c7.7,0,10.1,3.6,7.2,10.7c-3.5,8.6-7.1,17.2-10.7,25.8C76.2,379.3,72.7,388,68.9,397.2z M247.5,397
	c-35.7-30.4-70.7-60.1-106-90.2c-12.5,30.3-24.8,60.1-37.2,90.2C152.1,397,199.3,397,247.5,397z M261.6,346.1c0.9,1,1.1,1.3,1.4,1.6
	c18.2,15.9,36.4,31.9,54.7,47.8c1.2,1.1,3.3,1.6,5,1.6c16.8,0.1,33.5,0.1,50.3,0.1c6.9,0,13.8,0,21.1,0c-0.6-1.6-1-2.8-1.5-4
	c-6-14.5-12-29-17.8-43.5c-1.1-2.8-2.5-3.6-5.5-3.6c-34.5,0.1-68.9,0.1-103.4,0.1C264.7,346.1,263.5,346.1,261.6,346.1z
	 M109.9,266.5c-13.3,0-25.8-0.1-38.2,0.1c-1.2,0-2.9,1.5-3.5,2.8c-2.9,6.4-5.5,12.9-8.1,19.4c-1.8,4.4-3.6,8.7-5.6,13.5
	c13.3,0,26,0,38.8-0.1c0.8,0,2.1-0.8,2.4-1.5C100.4,289.6,105,278.4,109.9,266.5z M258.3,118c-6.5-28.4-33-46.7-61.8-42.5
	c-8,1.2-15.4,4.1-22.1,8.6c-3.2,2.2-4.1,5.3-2.5,8.2c1.7,3.1,4.9,3.9,8.6,2c0.7-0.4,1.4-0.8,2.1-1.2c19.4-11.3,41.8-7.3,55.8,10.3
	c10.9,13.8,12.7,29.2,5.3,44.9c-7.4,15.8-20.4,24.8-38.1,25.1c-17.8,0.3-30.8-8.3-39-23.7c-6.7-12.7-6.3-25.8-0.3-38.8
	c1.8-4,0.7-7.4-2.4-8.9c-3.2-1.6-6.4-0.1-8.4,3.9c-18,36.3,8.8,79.6,49.2,79.7C240,185.7,266.3,152.6,258.3,118z"/>
</svg>
