<?xml version="1.0" encoding="utf-8"?>
<!-- Generator: Adobe Illustrator 27.0.1, SVG Export Plug-In . SVG Version: 6.00 Build 0)  -->
<svg version="1.1" id="Layer_1" xmlns="http://www.w3.org/2000/svg" xmlns:xlink="http://www.w3.org/1999/xlink" x="0px" y="0px"
	 width="257.8px" height="257.8px" viewBox="0 0 257.8 257.8" enable-background="new 0 0 257.8 257.8" xml:space="preserve">
<path d="M148,0.3c4.5,0.6,8.9,1.1,13.4,1.9c17.6,3.2,33.3,10.7,47.4,21.7c17.5,13.6,30.3,30.7,38.4,51.5c5.7,14.8,7.4,30.1,6.8,45.8
	c-0.2,5.8-3.9,9.3-9.6,9.5c-5.8,0.2-9.7-3-10.5-8.9c-0.8-6-1.1-12-2.1-17.9c-2.9-16.7-7.9-32.6-18.1-46.6c-9-12.4-21-21-35-26.8
	c-13-5.4-26.6-8.4-40.5-10c-6.1-0.7-9.3-3.2-9.7-8c-0.4-5.4,2-10.7,7.7-11.8c0.2,0,0.4-0.3,0.6-0.4C140.6,0.3,144.3,0.3,148,0.3z
	 M8.5,80.3c9.7,23.4,21.7,45.6,36.5,66.2c15.9,22.1,34.4,41.7,55.5,58.8c24.5,19.8,51.4,35.6,80.3,48c7.2,3.1,14.7,5.5,22.9,3.2
	c18.8-5.3,32.4-16.7,40.3-34.5c5.4-12.1,2.9-21.8-7.4-30.2c-7.2-5.9-14.5-11.6-22.1-16.9c-6.7-4.7-13.5-9.3-20.8-13.1
	c-6.8-3.6-14.3-4-21.6-0.8c-5.4,2.4-9.4,6.5-13.1,11.1c-2.1,2.7-4.4,5.6-7.3,7.4c-4.8,3-9.9,1-14.6-1.1
	c-14.7-6.8-27.9-15.9-38.6-28.2c-7.6-8.7-13.7-18.4-17.8-29.2c-3.4-9-1.4-15.4,6.1-21.2c1.5-1.2,3.1-2.3,4.6-3.4
	c9-6.8,13.7-16.9,7.6-28.4c-4.5-8.6-9.6-17.1-15.1-25.1c-6-8.9-13-17-21.2-24c-4.9-4.2-10.5-5.9-16.9-5.5
	c-6.1,0.4-11.5,2.8-16.8,5.5C13.3,27.2,4.1,40,3.7,58.4C3.7,66,5.6,73.3,8.5,80.3z M211.9,75.5c-15-26.5-38.2-39.9-68.1-42.4
	c-7.7-0.6-12.9,6.1-11,13.6c1.3,4.9,5.1,6.3,9.5,7.4c7.2,1.7,14.5,3.2,21.6,5.5c10,3.2,18.7,8.6,24.8,17.5
	c5.6,8.2,8.3,17.5,10.1,27.1c0.9,4.5,1.1,9.1,2.2,13.6c1.1,4.6,4.7,6.8,9.7,6.6c5.2-0.2,8.5-2.7,9.4-7.4c0.5-2.8,0.4-5.7,0.6-8.5
	C220.4,96.8,217.7,85.7,211.9,75.5z M141.8,68.7c-3.7,1.5-5.9,6.1-5.6,10.4c0.4,4.1,2.9,6.4,6.6,7.6c2.2,0.7,4.5,1.1,6.8,1.6
	c9.7,2.2,15.9,8.9,17.4,18.8c0.3,2.3,0.7,4.7,1.5,6.8c1.6,4.4,5.4,6.8,9.9,6.5c4.5-0.3,7.8-2.9,8.8-7.6c0.6-2.6,0.8-5.3,0.6-8
	c-0.7-10.3-5.6-18.6-12.7-25.7c-7-7-15.1-11.8-25.5-12.5C147.1,67.3,144.3,67.6,141.8,68.7z"/>
</svg>
