<?xml version="1.0" encoding="utf-8"?>
<!-- Generator: Adobe Illustrator 27.0.1, SVG Export Plug-In . SVG Version: 6.00 Build 0)  -->
<svg version="1.1" id="Layer_1" xmlns="http://www.w3.org/2000/svg" xmlns:xlink="http://www.w3.org/1999/xlink" x="0px" y="0px"
	 width="512px" height="512px" viewBox="0 0 512 512" enable-background="new 0 0 512 512" xml:space="preserve">
<path d="M352,512c-6.2-1-12.5-1.9-18.7-3c-27.2-4.8-51.7-15.8-74.1-31.8c-53.9-38.7-103.6-82.2-148.5-131.1
	C80.3,313,51.6,278.4,26.9,240.6c-15.3-23.4-23.3-49.5-26.1-77.3c-0.2-1.8-0.6-3.5-0.8-5.3c0-7.7,0-15.3,0-23
	c0.8-5.7,1.5-11.5,2.5-17.2C8,86.4,20.7,58.2,41,33.6C50.2,22.5,60,12,73.7,6.5C80.6,3.8,87.9,2.1,95,0c5.7,0,11.3,0,17,0
	c4.5,1.1,9,2,13.4,3.4c12,3.7,22.2,10.4,31,19.3C168.7,35,181,47.2,193.2,59.5c30.6,30.8,30.5,75.3-0.2,106.1
	c-7.6,7.7-15.3,15.3-23,23c-13.3,13.4-13.6,28.3-1.4,42.6c34.4,40.4,71.8,77.8,112.2,112.2c14.3,12.1,29.2,11.8,42.6-1.4
	c9.1-9,17.9-18.4,27.4-27c27.6-25.3,70.4-25.4,97.7,0.2c15.1,14.1,29.5,28.9,43.9,43.7c10.5,10.8,16.7,23.9,18.8,38.9
	c0.1,0.8,0.6,1.5,0.9,2.2c0,5.7,0,11.3,0,17c-0.3,0.7-0.8,1.5-0.9,2.2c-2.2,15.5-8.8,28.9-19.8,39.9c-24.1,24.1-52.6,40.3-85.9,47.9
	c-9.4,2.1-18.9,3.3-28.4,5C368.7,512,360.3,512,352,512z M178.7,151.2C199.9,132.8,202.1,99,183,78c-14.3-15.6-29.3-30.6-44.9-44.9
	C117.3,14.1,85,16,65.4,36.3c-24,25-39.1,54.4-43.9,88.9c-5.2,37.6,1.8,72.9,22.3,104.7C68,267.4,96.7,301.5,127,334.2
	c43.1,46.6,90.6,88.4,142.2,125.5c48.5,34.9,100.7,41.9,156.5,20.2c12.1-4.7,23.3-11.2,32.9-18.8c-37.7-37.7-75.2-75.2-113.3-113.2
	c-2.8,3-5.8,6.5-9.2,9.7c-19.5,18.8-46.5,19.6-66.9,2.3C226.9,324,187.8,284.9,152,242.6c-16.2-19.1-16.4-44.4-0.3-63.5
	c4-4.7,8.4-8.9,13.8-14.6c-1.7-1.1-3.5-1.9-4.7-3.1c-19.5-19.4-38.9-38.8-58.4-58.3c-1.4-1.4-2.8-2.9-3.9-4.5c-2.6-4-2-9.2,1.3-12.4
	c3.1-3.1,8.1-3.7,11.9-1.3c1.8,1.1,3.4,2.7,4.9,4.2C137.3,109.8,157.9,130.4,178.7,151.2z M361.6,332.2
	c38.2,38.2,76.1,76.1,114.1,114.1c20.3-18.4,22.4-51.4,3.2-72.3c-14.3-15.6-29.3-30.6-44.8-44.8
	C413.1,309.9,380.7,311.9,361.6,332.2z M512,189c-2.8,9-5.6,18-12.1,25.3c-9.6,10.7-21.4,16.7-35.7,17.5c-7.6,0.4-15.3-0.1-23,0.3
	c-2.2,0.1-4.8,1.1-6.4,2.7c-10.7,10.3-21.1,20.8-31.6,31.3c-3.6,3.6-7.5,6.3-12.9,4.1c-5.6-2.3-6.5-7-6.4-12.3
	c0.1-8.5,0-16.9,0-25.9c-2.2,0-4,0-5.8,0c-26.7,0-53.3,0-80,0c-30.5,0-52.2-21.8-52.3-52.2c0-29.2,0-58.3,0-87.5
	c0-30.5,21.8-52.2,52.2-52.3c53.3,0,106.6,0.4,160-0.2c25.5-0.3,48.3,15.8,53,41.9c0.1,0.4,0.5,0.8,0.8,1.2
	C512,118.3,512,153.7,512,189z M404,235.8c0.4,0.2,0.8,0.3,1.2,0.5c6.3-6.4,12.7-12.7,18.9-19.2c3.3-3.5,7.1-5.1,12-5
	c7.7,0.2,15.3,0.1,23,0.1c20.6,0,32.9-12.4,32.9-33c0-28.5,0-57,0-85.5c0-21.2-12.2-33.5-33.5-33.5c-53,0-106,0-159,0
	C278.3,60,266,72.2,266,93.5c0,28.2,0,56.3,0,84.5c0,22,12,34.1,33.9,34.1c30.5,0,61,0,91.5,0c8.8,0,12.5,3.7,12.6,12.4
	C404,228.2,404,232,404,235.8z M220.8,379c1.9-4.8,0.1-8.7-3.5-12.1c-19.1-18.6-38.2-37.2-57.3-55.8c-5.1-5-10.8-5.3-15-1
	c-4.3,4.3-4.2,10.1,0.9,15c19.2,18.9,38.6,37.8,58,56.5c1.9,1.8,4.7,2.8,5.8,3.5C215.8,385.2,219.1,383.1,220.8,379z M126,297.9
	c4.9-0.1,9.5-4.6,9.7-9.6c0.2-5.4-4.5-10.3-10-10.3c-5.5,0-9.8,4.3-9.8,9.8C115.9,293.3,120.5,298,126,297.9z M79.2,56.1
	c-5.3,0.1-9.8,4.8-9.7,10.1c0.1,5.3,4.8,9.9,10,9.8c5.3-0.1,9.7-4.7,9.7-10.1C89,60.5,84.4,56,79.2,56.1z M330.6,126.1
	c-5.3,0-9.8,4.6-9.7,10c0,5.4,4.6,9.9,9.9,9.9c5.3,0,9.8-4.7,9.8-10C340.4,130.6,335.8,126,330.6,126.1z M389,135.9
	c0-5.2-4.8-9.9-10-9.8c-5.2,0.1-9.9,4.8-9.9,10c0,5.2,4.8,9.9,10,9.8C384.3,145.9,389,141.1,389,135.9z M427.6,126.1
	c-5.3-0.1-9.8,4.4-9.9,9.8c-0.1,5.4,4.3,10,9.6,10.1c5.3,0.1,9.8-4.4,9.9-9.8C437.3,130.7,433,126.2,427.6,126.1z"/>
</svg>
